<?xml version="1.0"?><svg width="100%" height="100%" viewBox="0 0 2510 2150" version="1.1" xmlns="http://www.w3.org/2000/svg" xmlns:xlink="http://www.w3.org/1999/xlink" xml:space="preserve" xmlns:serif="http://www.serif.com/" style="fill-rule:evenodd;clip-rule:evenodd;stroke-linejoin:round;stroke-miterlimit:2;"><g id="Layer-1"><path d="M1089.82,1322.74l428.446,-248.617l-428.446,-247.409l0,496.025Zm-480.333,295.688c-71.209,-19.313 -126.725,-76.033 -147.242,-146.033c-33.792,-129.138 -33.792,-398.271 -33.792,-398.271c0,-0 0,-269.134 33.792,-397.063c20.517,-71.204 76.033,-126.725 147.242,-146.033c127.929,-35 644.471,-35 644.471,-35c-0,-0 517.75,-0 645.683,35c72.412,19.308 126.721,74.829 146.033,146.033c34.996,127.929 34.996,397.063 34.996,397.063c0,-0 0,269.133 -34.996,398.271c-19.312,70 -73.621,126.72 -146.033,146.033c-127.933,35 -645.683,35 -645.683,35c-0,-0 -516.542,-0 -644.471,-35" style="fill:#f03;fill-rule:nonzero;"></path><path d="M1089.82,1322.74l428.446,-248.617l-428.446,-247.409l0,496.025Z" style="fill:#fff;fill-rule:nonzero;"></path></g></svg>